<?xml version="1.0" standalone="no"?>
<!DOCTYPE svg PUBLIC "-//W3C//DTD SVG 20010904//EN"
 "http://www.w3.org/TR/2001/REC-SVG-20010904/DTD/svg10.dtd">
<svg version="1.0" xmlns="http://www.w3.org/2000/svg"
 width="700.000000pt" height="700.000000pt" viewBox="0 0 700.000000 700.000000"
 preserveAspectRatio="xMidYMid meet">
<metadata>
Created by potrace 1.14, written by Peter Selinger 2001-2017
</metadata>
<g transform="translate(0.000000,700.000000) scale(0.100000,-0.100000)"
fill="#000000" stroke="none">
<path d="M2635 6077 c-21 -12 -52 -40 -67 -62 -19 -26 -272 -700 -699 -1859
-368 -1000 -668 -1820 -667 -1821 2 -1 55 20 118 47 255 110 590 210 880 262
168 30 389 56 475 56 33 0 66 4 73 8 7 5 147 421 312 926 164 504 307 931 317
949 62 106 201 101 259 -8 12 -22 153 -451 314 -952 l294 -913 80 0 c204 0
518 -44 757 -105 239 -61 523 -166 668 -248 52 -29 53 -30 46 -8 -4 13 -306
834 -671 1824 -421 1142 -674 1816 -692 1842 -15 22 -46 50 -67 62 l-40 23
-825 0 -825 0 -40 -23z"/>
<path d="M2444 2188 c-22 -95 -30 -331 -15 -440 23 -160 74 -313 142 -425 40
-66 108 -153 121 -153 4 0 12 19 19 42 25 96 84 169 168 209 61 30 198 33 251
5 86 -45 132 -123 145 -242 3 -33 10 -126 14 -209 11 -190 38 -280 123 -407
76 -114 197 -218 292 -254 16 -6 18 -4 11 12 -22 54 -45 178 -45 250 0 103 26
191 81 273 55 83 110 129 321 273 100 67 212 152 248 188 167 164 261 384 263
614 1 79 -17 200 -32 225 -6 8 -28 -1 -82 -34 -143 -88 -393 -168 -629 -201
-249 -35 -653 -3 -914 72 -165 47 -304 124 -401 223 -27 28 -52 51 -56 51 -4
0 -15 -33 -25 -72z"/>
</g>
</svg>
